<svg width="209" height="233" viewBox="0 0 209 233" fill="none" xmlns="http://www.w3.org/2000/svg">
<path d="M10.45 206.918H71.4083V217.351H74.8917V233H13.9333V217.351H10.45V233H6.96667V217.351H3.48333V233H0V206.918H6.96667V205.179H10.45V206.918Z" fill="white"/>
<path d="M134.108 212.134H130.625V233H127.142V212.134H123.658V233H120.175V212.134H116.692V233H113.208V212.134H109.725V233H106.242V212.134H102.758V233H99.275V212.134H95.7917V233H92.3083V212.134H88.825V233H85.3417V212.134H81.8583V233H78.375V212.134H74.8917V206.918H134.108V212.134Z" fill="white"/>
<path d="M209 233H205.517V217.351H202.033V233H198.55V217.351H195.067V233H134.108V217.351H137.592V206.918H209V233Z" fill="white"/>
<path d="M17.4167 193.007H19.1583V187.791H20.9V193.007H22.6417V187.791H24.3833V193.007H26.125V187.791H27.8667V193.007H29.6083V187.791H31.35V193.007H33.0917V187.791H34.8333V193.007H36.575V187.791H38.3167V193.007H52.25V203.44H15.675V187.791H17.4167V193.007Z" fill="white"/>
<path d="M59.2167 154.754H60.9583V151.276H62.7V154.754H64.4417C64.4417 152.833 66.0012 151.276 67.925 151.276C69.8488 151.276 71.4083 152.833 71.4083 154.754H73.15V151.276H74.8917V154.754H76.6333V149.537H80.1167V203.44H55.7333V149.537H59.2167V154.754Z" fill="white"/>
<path d="M125.4 203.44H83.6V196.485H125.4V203.44Z" fill="white"/>
<path d="M132.367 154.754H134.108V151.276H135.85V154.754H137.592C137.592 152.833 139.151 151.276 141.075 151.276C142.999 151.276 144.558 152.833 144.558 154.754H146.3V151.276H148.042V154.754H149.783V149.537H153.267V203.44H128.883V149.537H132.367V154.754Z" fill="white"/>
<path d="M172.425 193.007H174.167V187.791H175.908V193.007H177.65V187.791H179.392V193.007H181.133V187.791H182.875V193.007H184.617V187.791H186.358V193.007H188.1V187.791H189.842V193.007H191.583V187.791H193.325V203.44H156.75V193.007H170.683V187.791H172.425V193.007Z" fill="white"/>
<path d="M130.625 146.06H125.4V193.007H83.6V146.06H78.375V106.067H130.625V146.06Z" fill="white"/>
<path d="M80.1167 81.7239H81.8583V79.9851H85.3417V81.7239H87.0833V78.2463H88.825V85.2015H120.175V78.2463H121.917V81.7239H123.658V79.9851H127.142V81.7239H128.883V78.2463H130.625V85.2015H132.367V88.6791H130.625V104.328H120.175V92.1567H116.692V104.328H113.208V92.1567H109.725V104.328H106.242V92.1567H102.758V104.328H99.275V92.1567H95.7917V104.328H92.3083V92.1567H88.825V104.328H78.375V88.6791H76.6333V85.2015H78.375V78.2463H80.1167V81.7239Z" fill="white"/>
<path fill-rule="evenodd" clip-rule="evenodd" d="M106.242 29.5597H107.983V31.2985H106.242V33.0373H107.983V39.9925H113.208V41.7313H111.467V57.3806H113.208V55.6418H116.692V81.7239H92.3083V55.6418H95.7917V57.3806H97.5333V41.7313H95.7917V39.9925H101.017V33.0373H102.758V31.2985H101.017V29.5597H102.758V0H106.242V29.5597ZM104.5 46.9478C101.614 46.9478 99.275 49.2832 99.275 52.1642C99.275 55.0451 101.614 57.3806 104.5 57.3806C107.386 57.3806 109.725 55.0451 109.725 52.1642C109.725 49.2832 107.386 46.9478 104.5 46.9478Z" fill="white"/>
</svg>
